HIERARCHY
ROOT Hips
{
 OFFSET 0.000000 0.000000 0.000000
 CHANNELS 6 Xposition Yposition Zposition Yrotation Xrotation Zrotation
 JOINT Chest
 {
  OFFSET 0.000000 9.585900 0.002600
  CHANNELS 3 Yrotation Xrotation Zrotation
  JOINT Chest2
  {
   OFFSET 0.000000 9.601200 -0.005300
   CHANNELS 3 Yrotation Xrotation Zrotation
   JOINT Chest3
   {
    OFFSET 0.000000 9.561800 0.000000
    CHANNELS 3 Yrotation Xrotation Zrotation
    JOINT Chest4
    {
     OFFSET 0.000000 9.552100 0.000000
     CHANNELS 3 Yrotation Xrotation Zrotation
     JOINT Neck
     {
      OFFSET 0.000000 14.453000 0.000000
      CHANNELS 3 Yrotation Xrotation Zrotation
      JOINT Head
      {
       OFFSET 0.000000 8.936500 -0.011300
       CHANNELS 3 Yrotation Xrotation Zrotation
       End Site
       {
        OFFSET 0.000000 17.073600 -0.006000
       }
      }
     }
     JOINT RightCollar
     {
      OFFSET -2.921100 9.558500 0.000000
      CHANNELS 3 Yrotation Xrotation Zrotation
      JOINT RightShoulder
      {
       OFFSET -13.519700 0.000000 0.000000
       CHANNELS 3 Yrotation Xrotation Zrotation
       JOINT RightElbow
       {
        OFFSET 0.000000 -29.696600 0.000000
        CHANNELS 3 Yrotation Xrotation Zrotation
        JOINT RightWrist
        {
         OFFSET 0.000000 -24.004700 0.000000
         CHANNELS 3 Yrotation Xrotation Zrotation
         End Site
         {
          OFFSET 0.000000 -17.728500 0.000000
         }
        }
       }
      }
     }
     JOINT LeftCollar
     {
      OFFSET 2.921100 9.558500 0.000000
      CHANNELS 3 Yrotation Xrotation Zrotation
      JOINT LeftShoulder
      {
       OFFSET 13.519700 0.000000 0.000000
       CHANNELS 3 Yrotation Xrotation Zrotation
       JOINT LeftElbow
       {
        OFFSET 0.000000 -29.696600 0.000000
        CHANNELS 3 Yrotation Xrotation Zrotation
        JOINT LeftWrist
        {
         OFFSET 0.000000 -24.004700 0.000000
         CHANNELS 3 Yrotation Xrotation Zrotation
         End Site
         {
          OFFSET 0.000000 -17.728500 0.000000
         }
        }
       }
      }
     }
    }
   }
  }
 }
 JOINT RightHip
 {
  OFFSET -7.771700 -0.012900 -0.001300
  CHANNELS 3 Yrotation Xrotation Zrotation
  JOINT RightKnee
  {
   OFFSET 0.000000 -40.869800 0.001200
   CHANNELS 3 Yrotation Xrotation Zrotation
   JOINT RightAnkle
   {
    OFFSET 0.000000 -39.717900 0.002100
    CHANNELS 3 Yrotation Xrotation Zrotation
    JOINT RightToe
    {
     OFFSET 0.000000 -4.965400 11.033500
     CHANNELS 3 Yrotation Xrotation Zrotation
     End Site
     {
      OFFSET 0.000000 -1.423100 5.872300
     }
    }
   }
  }
 }
 JOINT LeftHip
 {
  OFFSET 7.771700 -0.012900 -0.001300
  CHANNELS 3 Yrotation Xrotation Zrotation
  JOINT LeftKnee
  {
   OFFSET 0.000000 -40.869800 0.001200
   CHANNELS 3 Yrotation Xrotation Zrotation
   JOINT LeftAnkle
   {
    OFFSET 0.000000 -39.717900 0.002100
    CHANNELS 3 Yrotation Xrotation Zrotation
    JOINT LeftToe
    {
     OFFSET 0.000000 -4.965400 11.033500
     CHANNELS 3 Yrotation Xrotation Zrotation
     End Site
     {
      OFFSET 0.000000 -1.423100 5.872300
     }
    }
   }
  }
 }
}
MOTION
Frames: 5
Frame Time: 0.008333
-39.734789 57.836211 12.177919 177.363936 -46.962281 -3.326957 3.915645 22.047496 3.095963 2.044075 12.676022 1.583971 2.660864 15.763588 2.063740 2.042976 12.665071 1.592051 -0.487723 15.864339 2.151905 -1.708270 -6.248310 4.204605 2.289297 2.941031 0.869861 -0.401359 -13.354499 -11.266778 -45.759926 -57.902429 92.672332 6.047786 6.300813 -34.702211 -9.955047 -0.487083 -0.288911 -5.207381 -16.050684 14.350476 31.565778 -42.099117 -73.285481 -4.171277 -5.594861 2.811110 2.445275 -24.896530 -3.474664 -34.276430 74.084766 -37.850918 6.691748 -15.359976 10.867438 0.029380 0.050007 0.034953 -6.112728 -22.083975 5.965609 88.563840 82.179195 89.166199 1.210301 -22.139964 -18.257390 -0.017522 0.009207 -0.003320
-39.735864 57.834947 12.172468 177.362347 -46.920881 -3.321915 3.901036 22.040268 3.081708 2.040838 12.673411 1.586473 2.655583 15.763744 2.060917 2.055491 12.642931 1.585051 -0.494731 15.888716 2.159686 -1.695465 -6.241871 4.196838 2.284860 2.953630 0.857397 -0.377488 -13.374260 -11.275393 -45.604111 -57.743949 92.456226 6.122964 6.242913 -34.773990 -9.993097 -0.512925 -0.300887 -5.185794 -16.045361 14.341572 31.497559 -42.053082 -73.152637 -4.114079 -5.500967 2.769094 2.428899 -24.947030 -3.490607 -34.314545 74.110820 -37.887384 6.702063 -15.384663 10.850592 0.030232 0.036108 0.031915 -6.086497 -22.123917 5.966621 88.537646 82.185535 89.156838 1.202752 -22.146534 -18.252932 -0.013318 0.010657 -0.000375
-39.735394 57.833166 12.167413 177.353121 -46.875821 -3.316209 3.896286 22.029256 3.078862 2.031021 12.667500 1.584597 2.624751 15.787446 2.059550 2.076433 12.619061 1.571477 -0.488516 15.893894 2.156636 -1.682740 -6.232522 4.188796 2.291424 2.954138 0.835015 -0.359107 -13.396207 -11.278339 -45.459386 -57.586328 92.260498 6.192525 6.191573 -34.833659 -10.017936 -0.552923 -0.316184 -5.169623 -16.031073 14.312413 31.444028 -42.058098 -73.022825 -4.049683 -5.402568 2.747610 2.425553 -24.995696 -3.493988 -34.315519 74.118870 -37.892243 6.707627 -15.400066 10.850423 0.022467 0.014178 0.021734 -6.056743 -22.166937 5.974491 88.536401 82.193335 89.171946 1.196090 -22.157024 -18.246510 -0.012272 0.012782 0.001838
-39.734080 57.832700 12.161024 177.349456 -46.842080 -3.314538 3.885256 22.026586 3.077247 2.032004 12.650176 1.580397 2.604628 15.797533 2.059723 2.041894 12.631691 1.574444 -0.458509 15.885578 2.137889 -1.665011 -6.223170 4.178047 2.334259 2.942355 0.800705 -0.346871 -13.414654 -11.273592 -45.301748 -57.433115 92.058652 6.259530 6.141366 -34.883193 -10.000411 -0.596876 -0.340707 -5.138125 -16.012365 14.288962 31.425392 -42.078984 -72.971693 -3.991481 -5.292308 2.760537 2.417605 -25.031981 -3.494990 -34.321680 74.133202 -37.898727 6.702522 -15.422790 10.846088 0.024392 0.015816 0.017856 -6.031640 -22.199697 5.985270 88.571125 82.211430 89.214559 1.196046 -22.168142 -18.231067 -0.011851 0.012945 0.000118
-39.731526 57.832825 12.154100 177.356992 -46.813769 -3.323805 3.854448 22.056183 3.073817 2.046836 12.606136 1.575590 2.583537 15.810590 2.060890 2.034242 12.628726 1.572371 -0.470285 15.908139 2.140559 -1.630213 -6.231461 4.148048 2.349052 2.945225 0.778837 -0.363069 -13.442108 -11.257973 -45.104657 -57.280448 91.850289 6.323200 6.090979 -34.924830 -10.013271 -0.626024 -0.354268 -5.095364 -15.998893 14.272317 31.337784 -42.170587 -72.783609 -3.838628 -5.232550 2.681141 2.404872 -25.061726 -3.492964 -34.403160 74.145856 -37.969203 6.705820 -15.455164 10.832828 0.033272 0.025222 0.019376 -6.018295 -22.224200 5.997357 88.541407 82.224872 89.200413 1.189548 -22.173948 -18.227142 -0.005821 0.013165 0.001690
